<?xml version="1.0" standalone="no"?>
<!DOCTYPE svg PUBLIC "-//W3C//DTD SVG 20010904//EN"
 "http://www.w3.org/TR/2001/REC-SVG-20010904/DTD/svg10.dtd">
<svg version="1.0" xmlns="http://www.w3.org/2000/svg"
 width="1920.000000pt" height="1920.000000pt" viewBox="0 0 1920.000000 1920.000000"
 preserveAspectRatio="xMidYMid meet">
<metadata>
Created by potrace 1.14, written by Peter Selinger 2001-2017
</metadata>
<g transform="translate(0.000000,1920.000000) scale(0.100000,-0.100000)"
fill="#000000" stroke="none">
<path d="M0 9600 l0 -9600 9600 0 9600 0 0 9600 0 9600 -9600 0 -9600 0 0
-9600z m5070 4490 c1028 -47 1777 -259 2310 -653 111 -82 296 -260 383 -367
297 -368 464 -845 508 -1455 41 -565 -73 -1078 -336 -1515 -114 -188 -223
-328 -394 -503 l-96 -97 -12 89 c-7 55 -21 108 -37 138 -28 56 -92 118 -142
139 -58 24 -144 28 -207 10 -44 -13 -62 -14 -78 -5 -13 6 -58 10 -116 7 -143
-5 -133 26 -133 -405 0 -421 -2 -413 96 -413 l50 0 144 -302 c79 -167 189
-400 245 -518 57 -118 164 -345 240 -505 75 -159 179 -378 230 -485 187 -393
299 -628 360 -760 335 -722 506 -1034 643 -1177 46 -48 49 -53 33 -67 -15 -14
-30 -14 -134 -1 -372 46 -856 46 -1547 0 -129 -9 -255 -17 -279 -18 l-44 -2
-104 235 c-151 341 -302 683 -453 1025 -231 522 -398 902 -510 1155 -240 543
-379 859 -408 925 l-30 70 -314 -3 c-211 -2 -383 2 -528 12 -118 9 -218 16
-222 16 -5 0 -8 -760 -8 -1688 0 -929 -2 -1691 -4 -1693 -2 -2 -392 -3 -865
-1 l-861 2 0 4349 0 4349 33 6 c54 9 292 35 477 51 612 52 1601 78 2110 55z
m10020 -15 c541 -51 1046 -177 1433 -358 l97 -46 -2 -997 c-2 -654 -6 -998
-13 -1000 -5 -2 -28 22 -50 53 -22 30 -79 93 -127 138 -273 261 -731 443
-1368 544 -331 53 -804 75 -1085 50 -504 -44 -1011 -226 -1361 -490 -373 -280
-636 -681 -784 -1196 -38 -134 -85 -365 -101 -500 l-12 -103 -77 0 c-63 0 -82
-4 -104 -21 -25 -20 -26 -23 -26 -140 l0 -119 -41 0 c-120 0 -256 -61 -332
-151 -137 -160 -135 -413 4 -564 99 -107 251 -149 399 -111 47 12 58 12 82 0
34 -18 58 -18 84 0 19 14 20 10 42 -127 127 -792 476 -1386 1027 -1752 321
-213 662 -330 1130 -387 130 -16 601 -15 775 1 271 25 571 79 787 141 357 104
742 308 983 523 86 76 179 178 254 279 16 21 32 35 37 32 5 -3 9 -398 9 -922
l-1 -917 -52 -40 c-569 -441 -1217 -677 -2087 -762 -247 -24 -819 -24 -1060 0
-469 46 -930 158 -1285 309 -475 203 -848 458 -1200 819 -525 540 -873 1196
-1053 1989 -53 230 -103 560 -114 749 -3 48 0 51 69 72 37 10 45 10 60 -3 35
-31 62 -31 103 -3 47 32 140 129 140 145 0 17 -21 54 -39 67 -13 9 -17 43 -21
195 -5 171 -7 187 -31 238 -46 97 -120 151 -238 171 l-62 11 6 82 c35 461 69
688 152 1021 247 991 759 1768 1517 2304 659 466 1534 734 2583 791 220 12
755 4 953 -15z m-3350 -4384 l0 -409 25 -30 25 -30 -59 -51 c-64 -56 -79 -60
-105 -32 -17 19 -18 19 -64 -2 -61 -27 -175 -29 -250 -3 -70 24 -152 99 -183
168 -20 45 -24 69 -24 158 0 90 4 112 24 152 37 75 95 134 169 170 62 31 73
33 169 33 l103 0 0 143 0 142 85 0 85 0 0 -409z m-2770 224 l0 -144 53 24 c38
18 69 25 115 25 101 0 169 -39 215 -125 20 -37 22 -59 28 -290 3 -137 9 -258
13 -267 7 -16 0 -18 -82 -18 l-91 0 -3 228 c-3 208 -5 230 -24 262 -29 50 -83
67 -141 45 -80 -31 -83 -41 -83 -304 l0 -231 -85 0 -85 0 0 470 0 470 85 0 85
0 0 -145z m5820 -137 l0 -283 53 55 c29 30 95 101 147 158 l95 103 97 -3 97
-3 -124 -130 c-68 -71 -124 -134 -125 -138 0 -5 31 -50 68 -100 85 -114 215
-308 210 -312 -6 -6 -185 -8 -195 -2 -6 4 -52 68 -103 144 -51 76 -94 139 -95
141 -1 1 -30 -26 -64 -60 l-61 -63 0 -83 0 -83 -82 3 -83 3 -3 468 -2 467 85
0 85 0 0 -282z m-6237 220 c71 -15 77 -25 77 -129 0 -49 -2 -89 -4 -89 -2 0
-23 11 -47 24 -24 14 -75 30 -112 37 -148 25 -254 -19 -313 -131 -15 -27 -19
-58 -19 -141 0 -98 2 -110 30 -164 42 -82 97 -116 199 -123 93 -6 163 11 227
53 l49 34 0 -89 c0 -88 0 -89 -31 -111 -117 -83 -364 -79 -491 9 -160 110
-220 365 -138 585 23 61 93 146 149 181 107 67 269 88 424 54z m-1325 -194
c47 -19 88 -58 115 -109 20 -37 22 -59 27 -295 3 -140 9 -261 13 -267 6 -10
-12 -13 -82 -13 l-89 0 -4 228 c-3 193 -6 232 -20 259 -35 63 -82 77 -158 47
-77 -31 -80 -41 -80 -303 l0 -231 -80 0 -80 0 0 345 0 345 80 0 c78 0 80 -1
80 -24 l0 -25 56 30 c45 23 68 29 120 29 36 0 81 -7 102 -16z m2782 -8 c49
-25 88 -64 113 -111 19 -35 22 -61 27 -227 5 -173 7 -189 27 -217 l23 -30 -57
-50 c-31 -28 -60 -51 -64 -51 -3 0 -18 11 -32 25 l-25 26 -49 -20 c-70 -27
-129 -34 -202 -22 -142 23 -211 90 -211 206 0 48 5 70 23 95 56 84 153 127
304 137 l95 6 -6 31 c-11 52 -45 77 -112 83 -63 6 -170 -16 -211 -42 -12 -8
-24 -15 -27 -15 -5 0 -12 33 -21 101 l-6 46 43 16 c86 32 115 36 223 34 83 -2
119 -7 145 -21z m2278 -56 c3 -93 -4 -106 -44 -85 -50 26 -92 17 -141 -28 -23
-20 -23 -24 -23 -264 l0 -243 -80 0 -80 0 0 345 0 345 80 0 c74 0 80 -2 80
-20 0 -20 2 -20 38 5 32 22 46 25 102 23 l65 -3 3 -75z m501 64 c66 -19 122
-74 145 -139 12 -37 16 -86 16 -207 0 -158 12 -228 39 -228 6 0 11 -4 11 -10
0 -10 -95 -102 -112 -109 -5 -2 -22 8 -36 22 l-27 25 -75 -25 c-70 -24 -80
-25 -157 -15 -157 21 -233 90 -233 210 0 63 33 119 94 159 64 44 132 63 244
70 101 6 101 7 71 68 -32 66 -185 72 -302 13 -22 -11 -40 -18 -42 -16 -2 2 -8
34 -13 71 l-9 68 28 15 c85 43 260 57 358 28z m765 -5 c30 -11 65 -28 77 -38
l22 -18 -23 -66 c-13 -37 -27 -67 -31 -67 -3 0 -13 7 -20 17 -26 31 -98 55
-168 55 -73 1 -106 -11 -116 -42 -17 -53 9 -70 158 -99 54 -11 114 -30 133
-42 106 -65 124 -219 35 -308 -55 -55 -122 -75 -246 -75 -106 0 -230 29 -255
58 -8 11 -10 37 -5 91 4 41 9 75 11 75 2 0 20 -11 40 -25 52 -35 136 -58 219
-59 87 -1 125 18 125 64 0 38 -29 53 -130 70 -140 24 -208 61 -241 134 -50
111 9 234 133 277 76 26 210 25 282 -2z m754 -10 c64 -32 100 -67 132 -129 23
-45 39 -141 33 -191 -6 -48 -8 -48 -283 -49 -121 -1 -220 -4 -220 -7 0 -19 47
-82 75 -101 50 -35 149 -49 236 -34 39 7 84 19 101 28 16 8 32 14 34 11 2 -2
1 -38 -2 -80 l-7 -76 -39 -16 c-67 -26 -177 -38 -252 -27 -135 21 -233 89
-287 197 -25 52 -30 74 -31 136 0 92 12 138 54 208 65 107 168 160 309 161 76
0 93 -4 147 -31z m1532 7 c49 -25 88 -64 113 -111 19 -36 22 -61 27 -232 5
-182 6 -193 28 -216 l23 -24 -57 -52 c-32 -28 -62 -51 -66 -51 -5 0 -20 12
-35 26 l-25 25 -52 -22 c-41 -19 -68 -23 -136 -22 -179 2 -270 73 -270 211 0
69 21 108 88 159 55 42 124 62 240 70 85 6 92 8 92 27 0 53 -64 96 -143 96
-52 0 -153 -25 -186 -46 -13 -9 -27 -12 -31 -7 -5 4 -10 37 -12 73 -3 63 -2
65 27 79 63 31 121 40 230 38 83 -2 119 -7 145 -21z m694 18 c18 -7 20 -43 9
-132 -6 -51 -7 -52 -25 -35 -12 10 -36 17 -68 17 -41 1 -54 -4 -79 -28 l-31
-30 0 -243 0 -244 -82 3 -83 3 -3 343 -2 342 85 0 c78 0 85 -2 85 -20 0 -18 2
-18 36 5 28 19 50 25 90 25 29 0 59 -3 68 -6z m-9418 -218 c17 -13 19 -30 22
-174 l3 -160 -58 -36 c-31 -20 -61 -36 -65 -36 -10 0 -10 361 0 377 7 11 61
43 73 43 3 0 14 -6 25 -14z"/>
<path d="M4500 12550 c-74 -4 -177 -10 -228 -15 l-92 -7 0 -1247 c0 -685 0
-1280 0 -1321 l0 -75 -32 -14 c-64 -27 -68 -35 -68 -140 0 -53 4 -101 8 -107
10 -16 48 -34 70 -34 19 0 20 -9 24 -172 4 -190 15 -233 74 -292 57 -56 100
-71 204 -71 104 0 154 13 200 52 30 25 30 26 30 127 0 94 -2 104 -23 124 -28
27 -57 28 -88 4 -29 -23 -71 -34 -93 -26 -13 5 -16 26 -16 130 l0 124 65 0
c57 0 69 3 90 25 23 22 25 32 25 118 0 126 -10 140 -109 145 l-71 4 0 64 0 64
43 0 c24 0 78 -3 120 -6 l76 -7 3 -454 c3 -437 4 -455 22 -469 14 -10 50 -14
126 -14 152 0 143 -16 141 267 l-2 228 24 23 c32 31 77 27 94 -8 9 -18 13 -89
13 -246 0 -280 -10 -263 153 -265 102 -1 121 1 138 17 17 15 19 26 14 54 -4
19 -10 145 -13 280 -7 236 -8 247 -33 300 -56 118 -138 173 -262 174 -40 1
-83 -1 -97 -4 -24 -5 -25 -4 -25 55 l0 60 115 7 c291 17 464 45 639 104 212
70 378 169 512 303 231 231 339 527 339 931 0 502 -188 837 -568 1011 -357
164 -887 233 -1542 199z m440 -2636 c0 -80 3 -144 8 -142 58 31 98 42 154 46
128 8 220 -62 247 -189 6 -28 11 -145 11 -260 0 -126 4 -218 10 -230 10 -18 7
-19 -85 -19 l-95 0 0 220 c0 231 -5 266 -46 301 -46 39 -116 30 -171 -23 l-33
-32 0 -233 0 -233 -80 0 -80 0 0 470 0 470 80 0 80 0 0 -146z m-532 -11 l3
-93 89 0 90 0 0 -75 0 -75 -90 0 -90 0 0 -169 c0 -197 5 -209 81 -218 40 -5
71 4 132 35 4 2 7 -30 7 -72 0 -91 -8 -99 -116 -117 -96 -16 -166 4 -217 60
-47 52 -57 106 -57 311 l0 170 -50 0 -50 0 0 75 0 75 50 0 50 0 0 95 0 96 83
-3 82 -3 3 -92z"/>
<path d="M2678 10071 c-99 -11 -93 25 -96 -500 -3 -559 -17 -511 152 -511 156
0 150 -7 156 176 l5 147 64 -144 c35 -79 72 -153 82 -163 16 -17 32 -19 145
-18 104 1 130 4 145 18 26 23 24 62 -4 104 -13 19 -52 95 -86 167 l-63 132 41
47 c60 69 84 140 79 239 -9 164 -101 263 -277 301 -67 14 -236 16 -343 5z
m280 -61 c132 -15 209 -59 255 -145 16 -31 21 -59 21 -120 1 -70 -3 -86 -26
-127 -15 -25 -47 -62 -70 -81 l-42 -35 79 -164 c43 -90 87 -176 98 -191 l19
-28 -107 3 -107 3 -73 165 -73 165 -56 3 c-31 2 -56 -1 -55 -5 1 -4 1 -81 0
-170 l-1 -163 -85 0 -85 0 2 443 3 442 75 6 c125 9 142 9 228 -1z"/>
<path d="M2825 9848 c-3 -8 -4 -66 -3 -129 l3 -114 52 -3 c105 -6 175 34 188
107 9 52 -15 105 -55 126 -45 23 -178 33 -185 13z m149 -68 c21 -8 26 -16 26
-43 0 -41 -22 -62 -72 -70 l-38 -6 0 65 0 64 29 0 c16 0 41 -4 55 -10z"/>
<path d="M5777 9884 c-3 -3 -65 -7 -137 -8 -126 -1 -133 -2 -151 -25 -18 -22
-19 -44 -19 -387 0 -441 -13 -404 148 -404 155 0 146 -18 143 276 -2 170 1
239 10 250 17 20 55 17 88 -7 34 -25 78 -17 93 17 14 31 24 30 32 -1 4 -14 18
-31 31 -37 l25 -11 -39 -34 c-57 -48 -81 -104 -81 -189 0 -163 106 -257 304
-271 58 -4 99 -1 143 10 61 16 64 16 99 -5 32 -19 38 -20 64 -7 16 8 59 43 95
78 72 70 81 97 41 134 -22 21 -23 29 -28 197 -6 206 -22 261 -92 333 -100 103
-317 125 -499 52 l-61 -25 -21 25 c-12 15 -38 28 -65 34 -51 12 -114 14 -123
5z m117 -70 c13 -5 16 -21 15 -78 0 -39 -4 -79 -8 -89 -6 -17 -8 -17 -20 -4
-6 9 -30 18 -51 22 -41 7 -69 -3 -107 -38 -23 -20 -23 -24 -23 -264 l0 -243
-80 0 -80 0 0 345 0 345 80 0 c73 0 80 -2 80 -20 0 -18 2 -18 36 5 28 19 50
25 90 25 29 0 59 -3 68 -6z m545 -23 c24 -12 55 -35 69 -49 49 -53 56 -84 62
-284 5 -171 7 -189 27 -216 l22 -29 -53 -52 c-28 -28 -56 -51 -61 -51 -5 0
-20 11 -34 24 l-26 24 -78 -26 c-75 -24 -83 -25 -158 -14 -153 22 -229 91
-229 208 0 49 25 107 62 141 58 54 186 92 305 93 l62 0 -10 32 c-5 18 -19 43
-32 56 -44 44 -180 40 -279 -8 -23 -11 -43 -19 -44 -17 -1 1 -7 33 -12 70 -10
78 -12 76 88 109 82 27 258 21 319 -11z"/>
<path d="M6269 9430 c-61 -11 -86 -24 -104 -60 -19 -37 -11 -76 21 -97 30 -19
134 -21 187 -4 l37 13 0 73 c0 91 -11 97 -141 75z m71 -85 c0 -24 -3 -25 -60
-25 -45 0 -60 4 -60 14 0 17 42 34 88 35 28 1 32 -2 32 -24z"/>
<path d="M3365 9866 c-18 -13 -19 -28 -17 -262 3 -263 12 -344 43 -406 25 -49
76 -100 125 -123 52 -25 167 -31 221 -12 24 8 47 11 55 6 7 -5 61 -9 121 -9
160 0 147 -34 147 390 0 399 -2 414 -64 425 -20 4 -72 5 -117 3 -123 -5 -119
4 -119 -289 l0 -239 -26 -10 c-35 -14 -73 -2 -79 24 -3 11 -6 124 -7 249 -4
282 5 267 -157 267 -76 0 -113 -4 -126 -14z m215 -271 c0 -248 8 -287 66 -311
18 -8 45 -14 58 -14 37 0 105 30 116 51 6 10 10 120 10 253 l0 236 80 0 80 0
2 -330 c0 -181 1 -336 2 -342 1 -9 -23 -14 -81 -16 -83 -3 -83 -3 -83 23 0 14
-3 25 -7 25 -3 0 -31 -12 -62 -27 -109 -54 -237 -29 -295 56 -40 58 -46 103
-48 364 l-3 247 83 0 82 0 0 -215z"/>
<path d="M10620 9875 c-35 -11 -51 -12 -72 -4 -15 6 -66 9 -116 8 -143 -6
-132 28 -132 -411 0 -445 -14 -408 148 -408 154 0 145 -18 143 274 l-2 235 23
14 c38 24 63 28 84 13 18 -13 19 -31 24 -260 4 -182 8 -248 18 -258 16 -16
214 -27 255 -15 31 10 43 43 32 85 -5 15 -11 137 -14 272 -5 222 -8 249 -27
291 -30 64 -86 123 -141 149 -60 28 -163 35 -223 15z m196 -74 c22 -10 55 -36
72 -57 54 -65 62 -111 62 -361 0 -136 4 -232 10 -244 10 -18 7 -19 -80 -19
l-90 0 0 183 c0 271 -17 340 -88 361 -46 13 -97 -1 -137 -38 l-35 -33 0 -237
0 -237 -82 3 -83 3 0 340 0 340 83 3 c81 3 82 2 82 -21 l0 -24 56 29 c70 35
165 39 230 9z"/>
<path d="M11411 9660 c-126 -26 -187 -167 -126 -293 34 -73 128 -109 239 -93
l46 7 0 184 c0 101 -3 186 -7 188 -18 11 -112 15 -152 7z m99 -195 l0 -135
-35 0 c-54 0 -114 28 -132 63 -19 37 -21 114 -4 145 20 36 70 62 124 62 l47 0
0 -135z"/>
<path d="M9847 9430 c-27 -5 -59 -16 -73 -25 -52 -34 -56 -100 -8 -131 32 -22
148 -23 188 -2 27 14 28 18 28 89 l0 74 -43 2 c-24 0 -66 -3 -92 -7z m73 -85
c0 -18 -5 -25 -20 -25 -15 0 -20 7 -20 25 0 18 5 25 20 25 15 0 20 -7 20 -25z"/>
<path d="M12649 9430 c-58 -10 -94 -33 -109 -70 -35 -84 80 -131 218 -88 l33
10 -3 76 -3 77 -45 2 c-25 0 -66 -3 -91 -7z"/>
<path d="M14062 9663 c-34 -17 -65 -53 -82 -97 l-10 -26 160 0 c177 0 173 -2
146 65 -29 68 -135 97 -214 58z"/>
<path d="M15679 9430 c-58 -10 -85 -24 -105 -55 -22 -33 -14 -74 18 -98 34
-26 149 -27 197 -3 30 16 31 18 31 85 0 87 -12 93 -141 71z"/>
</g>
</svg>
